<svg xmlns="http://www.w3.org/2000/svg" width="9.2" height="9.202" viewBox="0 0 9.2 9.202">
  <g id="Layer_2" data-name="Layer 2" transform="translate(0 0.001)">
    <path id="Subtraction_7" data-name="Subtraction 7" d="M-2108.266-8273.36a4.605,4.605,0,0,1-4.6-4.6,4.606,4.606,0,0,1,4.6-4.6,4.606,4.606,0,0,1,4.6,4.6A4.605,4.605,0,0,1-2108.266-8273.36Zm0-7.786a.354.354,0,0,0-.353.354v2.831a.349.349,0,0,0,.1.251l1.948,1.948a.352.352,0,0,0,.251.1.35.35,0,0,0,.249-.1.354.354,0,0,0,.106-.254.344.344,0,0,0-.106-.249l-1.844-1.84v-2.687A.354.354,0,0,0-2108.266-8281.146Z" transform="translate(2112.866 8282.562)" fill="#e9d419"/>
  </g>
</svg>
