<svg xmlns="http://www.w3.org/2000/svg" width="30" height="30" viewBox="0 0 30 30">
  <g id="call" transform="translate(13023 12339)">
    <rect id="Rectangle_237" data-name="Rectangle 237" width="30" height="30" rx="10" transform="translate(-13023 -12339)" fill="#245bc2"/>
    <path id="Icon_feather-phone-call" data-name="Icon feather-phone-call" d="M15.387,11.561V13.4a1.229,1.229,0,0,1-1.339,1.229,12.159,12.159,0,0,1-5.3-1.886A11.981,11.981,0,0,1,5.059,9.061,12.159,12.159,0,0,1,3.173,3.734,1.229,1.229,0,0,1,4.4,2.394H6.239A1.229,1.229,0,0,1,7.467,3.451,7.889,7.889,0,0,0,7.9,5.178a1.229,1.229,0,0,1-.276,1.3l-.78.78a9.83,9.83,0,0,0,3.686,3.686l.78-.78a1.229,1.229,0,0,1,1.3-.276,7.889,7.889,0,0,0,1.726.43A1.229,1.229,0,0,1,15.387,11.561Z" transform="translate(-13017.725 -12332.069)" fill="none" stroke="#fff" stroke-linecap="round" stroke-linejoin="round" stroke-width="1"/>
  </g>
</svg>
