<svg xmlns="http://www.w3.org/2000/svg" width="19.866" height="19.866" viewBox="0 0 19.866 19.866">
  <g id="_4927965_emoji_emotion_face_feeling_smile_icon" data-name="4927965_emoji_emotion_face_feeling_smile_icon" transform="translate(-4.242 -4.242)">
    <g id="Layer_2" data-name="Layer 2" transform="translate(4.242 4.242)">
      <circle id="Ellipse_2771" data-name="Ellipse 2771" cx="9.933" cy="9.933" r="9.933" transform="translate(0 0)" fill="#f9bf44"/>
    </g>
    <g id="Layer_1" data-name="Layer 1" transform="translate(9.345 12.341)">
      <path id="Path_4227" data-name="Path 4227" d="M24.634,39.694a4.5,4.5,0,0,1-4.068-2.533.358.358,0,0,1,.642-.316,3.817,3.817,0,0,0,6.851,0,.358.358,0,0,1,.642.316A4.5,4.5,0,0,1,24.634,39.694Z" transform="translate(-19.804 -33.149)" fill="#382a12"/>
      <ellipse id="Ellipse_2772" data-name="Ellipse 2772" cx="0.895" cy="1.027" rx="0.895" ry="1.027" fill="#382a12"/>
      <ellipse id="Ellipse_2773" data-name="Ellipse 2773" cx="0.895" cy="1.027" rx="0.895" ry="1.027" transform="translate(7.87)" fill="#382a12"/>
    </g>
  </g>
</svg>
