<svg xmlns="http://www.w3.org/2000/svg" width="31" height="31" viewBox="0 0 31 31">
  <g id="Group_17323" data-name="Group 17323" transform="translate(-1454 -751)">
    <g id="Group_17322" data-name="Group 17322">
      <g id="Rectangle_128" data-name="Rectangle 128" transform="translate(1454 751)" fill="#fff" stroke="#ebebeb" stroke-width="1">
        <rect width="31" height="31" rx="8" stroke="none"/>
        <rect x="0.5" y="0.5" width="30" height="30" rx="7.5" fill="none"/>
      </g>
    </g>
    <g id="_x31__stroke" transform="translate(1457.208 754.807)">
      <g id="Google" transform="translate(0)">
        <rect id="Rectangle_124" data-name="Rectangle 124" width="24" height="23" transform="translate(0.161 0.193)" fill="none"/>
        <path id="Path_4174" data-name="Path 4174" d="M6.379,40.5a5.867,5.867,0,0,1,.368-2.035L2.623,35.648a10.007,10.007,0,0,0,0,9.707l4.122-2.826A5.87,5.87,0,0,1,6.379,40.5" transform="translate(-0.96 -29.07)" fill="#fbbc05" fill-rule="evenodd"/>
        <path id="Path_4175" data-name="Path 4175" d="M18.937,4.484a7.613,7.613,0,0,1,4.512,1.445L27.014,2.74A13.054,13.054,0,0,0,18.937,0a12.421,12.421,0,0,0-11,6.1l4.124,2.821a7.2,7.2,0,0,1,6.874-4.442" transform="translate(-6.276 0.473)" fill="#ea4335" fill-rule="evenodd"/>
        <path id="Path_4176" data-name="Path 4176" d="M18.937,80.323a7.2,7.2,0,0,1-6.874-4.442L7.938,78.7a12.421,12.421,0,0,0,11,6.105,12.479,12.479,0,0,0,7.985-2.732l-3.915-2.711a8.268,8.268,0,0,1-4.07.958" transform="translate(-6.276 -62.413)" fill="#34a853" fill-rule="evenodd"/>
        <path id="Path_4177" data-name="Path 4177" d="M77.155,54.357a8.183,8.183,0,0,0-.279-1.993H65.457V56.6H72.03a4.969,4.969,0,0,1-2.5,3.276l3.915,2.711a10.366,10.366,0,0,0,3.713-8.228" transform="translate(-52.732 -42.923)" fill="#4285f4" fill-rule="evenodd"/>
      </g>
    </g>
  </g>
</svg>
