<svg xmlns="http://www.w3.org/2000/svg" width="116" height="114" viewBox="0 0 116 114">
  <g id="Group_17174" data-name="Group 17174" transform="translate(0 -0.063)">
    <g id="Group_17146" data-name="Group 17146" transform="translate(0 0)">
      <rect id="Rectangle_115" data-name="Rectangle 115" width="116" height="114" rx="37" transform="translate(0 0.063)" fill="#0d62b6"/>
    </g>
    <g id="file-share-svgrepo-com" transform="translate(31.006 32.555)">
      <path id="Path_4189" data-name="Path 4189" d="M52.84,12.514H27.331L22.991,6.54A3.757,3.757,0,0,0,19.948,5H7.757A3.757,3.757,0,0,0,4,8.757V50.083A3.757,3.757,0,0,0,7.757,53.84H52.84A3.757,3.757,0,0,0,56.6,50.083V16.271A3.757,3.757,0,0,0,52.84,12.514ZM7.757,8.757H19.948l5.109,7.514H7.757ZM37.7,45.65a3.926,3.926,0,0,1-3.964-3.87v-.564l-10.651-5-.15.15a3.907,3.907,0,1,1,.15-5.541l10.595-5V25.4a3.907,3.907,0,1,1,1.09,2.743L24.194,33.177v.883l10.745,5a3.888,3.888,0,1,1,2.761,6.65Z" transform="translate(-4 -5)" fill="#fff"/>
    </g>
  </g>
</svg>
