<svg xmlns="http://www.w3.org/2000/svg" width="116" height="115" viewBox="0 0 116 115">
  <g id="Group_17316" data-name="Group 17316" transform="translate(-346 -441)">
    <g id="Group_17181" data-name="Group 17181" transform="translate(346 440.729)">
      <g id="Group_17179" data-name="Group 17179" transform="translate(0 0)">
        <g id="Group_17139" data-name="Group 17139" transform="translate(0 0)">
          <rect id="Rectangle_115" data-name="Rectangle 115" width="116" height="115" rx="37" transform="translate(0 0.271)" fill="#0f44a9"/>
        </g>
        <g id="_9081297_screen_share_icon" data-name="9081297_screen_share_icon" transform="translate(15.414 15.562)">
          <path id="Path_4181" data-name="Path 4181" d="M0,0H84.688V84.688H0Z" fill="none"/>
        </g>
      </g>
    </g>
    <g id="_3669254_screen_share_ic_icon" data-name="3669254_screen_share_ic_icon" transform="translate(371.058 467.058)">
      <path id="Path_4256" data-name="Path 4256" d="M0,0H65.885V65.885H0Z" fill="none"/>
      <path id="Path_4257" data-name="Path 4257" d="M54.9,46.433a5.483,5.483,0,0,0,5.463-5.49l.027-27.452A5.489,5.489,0,0,0,54.9,8H10.981a5.471,5.471,0,0,0-5.49,5.49V40.942a5.489,5.489,0,0,0,5.49,5.49H0v5.49H65.885v-5.49ZM35.688,36.742V30.73c-7.632,0-12.655,2.333-16.471,7.467,1.537-7.33,5.792-14.632,16.471-16.114V16.236l10.981,10.24L35.688,36.742Z" transform="translate(0 2.981)" fill="#fff"/>
    </g>
  </g>
</svg>
