<svg xmlns="http://www.w3.org/2000/svg" width="116" height="114" viewBox="0 0 116 114">
  <g id="Group_17220" data-name="Group 17220" transform="translate(-336 -638)">
    <g id="Group_17177" data-name="Group 17177" transform="translate(336.255 637.937)">
      <g id="Group_17148" data-name="Group 17148" transform="translate(0 0)">
        <rect id="Rectangle_115" data-name="Rectangle 115" width="116" height="114" rx="37" transform="translate(-0.255 0.063)" fill="#098cc7"/>
      </g>
    </g>
    <g id="_1118214_calendar_clipboard_date_select_icon" data-name="1118214_calendar_clipboard_date_select_icon" transform="translate(347.815 649.173)">
      <path id="Path_4221" data-name="Path 4221" d="M65.387,20.919H63.642V15.246a1.746,1.746,0,0,0-3.491,0v5.673H32.22V15.246a1.746,1.746,0,1,0-3.491,0v5.673H26.983c-3.856,0-6.983,2.69-6.983,6.546v3.928H72.37V27.465C72.37,23.609,69.244,20.919,65.387,20.919ZM30.472,29.211a3.481,3.481,0,0,1-1.744-6.5V25.72a1.746,1.746,0,1,0,3.491,0V22.714a3.481,3.481,0,0,1-1.747,6.5Zm31.422,0a3.481,3.481,0,0,1-1.744-6.5V25.72a1.746,1.746,0,1,0,3.491,0V22.714a3.481,3.481,0,0,1-1.747,6.5Z" fill="#fff"/>
    </g>
    <path id="Subtraction_6" data-name="Subtraction 6" d="M1700-4962h-44a4,4,0,0,1-4-4v-34h52v34A4,4,0,0,1,1700-4962Zm-33.872-14.907c.182,3.713,2.885,6.02,7.056,6.02,3.98,0,6.552-2.242,6.552-5.712,0-2.693-1.243-4.553-3.5-5.235v-.113a4.767,4.767,0,0,0,3.136-4.619c0-3.232-2.462-5.321-6.272-5.321-3.911,0-6.475,2.114-6.692,5.517h3.108a3.174,3.174,0,0,1,3.472-2.772c2.086,0,3.332,1.1,3.332,2.94,0,2.022-1.52,3.021-4.648,3.052h-.755v2.631h.728c3.553,0,5.068,1.081,5.068,3.613a3.212,3.212,0,0,1-3.556,3.36,3.619,3.619,0,0,1-3.949-3.36Zm19.153-11.592v17.5h3.22v-20.413h-5.825v2.913Z" transform="translate(-1284 5682)" fill="#fff"/>
  </g>
</svg>
