<svg xmlns="http://www.w3.org/2000/svg" width="116" height="114" viewBox="0 0 116 114">
  <g id="Group_17176" data-name="Group 17176" transform="translate(-0.474 -0.46)">
    <g id="Group_17143" data-name="Group 17143" transform="translate(0 0)">
      <rect id="Rectangle_115" data-name="Rectangle 115" width="116" height="114" rx="37" transform="translate(0.474 0.46)" fill="#0d62b6"/>
    </g>
    <path id="mic-svgrepo-com" d="M24.194,57.071V53.71A25.365,25.365,0,0,1,2,28.535H8.341a19.024,19.024,0,0,0,38.047,0H52.73A25.365,25.365,0,0,1,30.535,53.71v3.361h9.512v6.341H14.682V57.071ZM14.682,12.682a12.682,12.682,0,0,1,25.365,0V28.535a12.682,12.682,0,0,1-25.365,0Z" transform="translate(30.891 25.874)" fill="#fff"/>
  </g>
</svg>
