<svg xmlns="http://www.w3.org/2000/svg" width="116" height="115" viewBox="0 0 116 115">
  <g id="Group_17178" data-name="Group 17178" transform="translate(0.018 0.403)">
    <g id="Group_17145" data-name="Group 17145" transform="translate(0 0)">
      <rect id="Rectangle_115" data-name="Rectangle 115" width="116" height="115" rx="37" transform="translate(-0.018 -0.403)" fill="#0f42a8"/>
    </g>
    <g id="chat-svgrepo-com" transform="translate(28.67 30.875)">
      <path id="Subtraction_3" data-name="Subtraction 3" d="M44,52.608l0,0-8.433-9.277-5.115-5.946a1.024,1.024,0,0,0-1.8.591,1.014,1.014,0,0,0,.245.745L33.439,44H5.116a5.073,5.073,0,0,1-3.6-1.513A5.07,5.07,0,0,1,0,38.882V5.116a5.072,5.072,0,0,1,1.513-3.6A5.072,5.072,0,0,1,5.116,0H54.23a5.071,5.071,0,0,1,3.6,1.514,5.076,5.076,0,0,1,1.514,3.6V38.882A5.168,5.168,0,0,1,54.23,44H44v8.609ZM11.255,29.674a1.023,1.023,0,1,0,0,2.046H46.044a1.023,1.023,0,1,0,0-2.046Zm0-8.186a1.023,1.023,0,1,0,0,2.046H46.044a1.023,1.023,0,1,0,0-2.046Zm0-8.186a1.023,1.023,0,1,0,0,2.046H26.6a1.023,1.023,0,1,0,0-2.046Z" transform="translate(0 0)" fill="#fff"/>
    </g>
  </g>
</svg>
