<svg xmlns="http://www.w3.org/2000/svg" xmlns:xlink="http://www.w3.org/1999/xlink" width="39" height="37" viewBox="0 0 39 37">
  <defs>
    <clipPath id="clip-path">
      <rect id="Rectangle_181" data-name="Rectangle 181" width="39" height="37" transform="translate(134 385)"/>
    </clipPath>
  </defs>
  <g id="Mask_Group_30" data-name="Mask Group 30" transform="translate(-134 -385)" clip-path="url(#clip-path)">
    <g id="Layer_2" data-name="Layer 2" transform="translate(135.376 386)">
      <path id="Path_4203" data-name="Path 4203" d="M20.812,38.624A17.812,17.812,0,1,1,38.624,20.812,17.812,17.812,0,0,1,20.812,38.624Zm0-32.883A15.072,15.072,0,1,0,35.884,20.812,15.072,15.072,0,0,0,20.812,5.74Z" transform="translate(-3 -3)" fill="#9b9d9f"/>
      <path id="Path_4204" data-name="Path 4204" d="M23.906,28.237a1.37,1.37,0,0,1-.973-.4L15.4,20.3a1.37,1.37,0,0,1-.4-.973V8.37a1.37,1.37,0,0,1,2.74,0v10.4l7.138,7.125a1.37,1.37,0,0,1-.973,2.343Z" transform="translate(1.442 -1.519)" fill="#9b9d9f"/>
    </g>
  </g>
</svg>
