<svg xmlns="http://www.w3.org/2000/svg" xmlns:xlink="http://www.w3.org/1999/xlink" width="38.497" height="37.007" viewBox="0 0 38.497 37.007">
  <defs>
    <clipPath id="clip-path">
      <path id="Union_3" data-name="Union 3" d="M1676.84-4963v-11.068a2.69,2.69,0,0,0-.793-1.914,2.691,2.691,0,0,0-1.915-.794h-6.02a2.711,2.711,0,0,0-2.708,2.708V-4963h-7.5a1.917,1.917,0,0,1-1.363-.565,1.914,1.914,0,0,1-.565-1.362v-14.66l-2.716-.018a1.271,1.271,0,0,1-1.168-.789,1.272,1.272,0,0,1,.277-1.382l17.853-17.853a1.27,1.27,0,0,1,.9-.374,1.27,1.27,0,0,1,.9.374l18.1,18.1a1.272,1.272,0,0,1,.273,1.39,1.272,1.272,0,0,1-1.182.781l-2.941-.02v14.454a1.916,1.916,0,0,1-.565,1.363,1.914,1.914,0,0,1-1.363.565Z" transform="translate(-1578.498 5290)" fill="#9b9d9f"/>
    </clipPath>
  </defs>
  <g id="Mask_Group_28" data-name="Mask Group 28" transform="translate(-73.499 -289.998)" clip-path="url(#clip-path)">
    <path id="Path_4258" data-name="Path 4258" d="M0,0H39V37H0Z" transform="translate(73 290)" fill="#0f44a9"/>
  </g>
</svg>
