<svg xmlns="http://www.w3.org/2000/svg" width="128" height="128" viewBox="0 0 128 128">
  <g id="_1936915_communication_mail_origami_paper_plane_icon" data-name="1936915_communication_mail_origami_paper_plane_icon" transform="translate(0 0.2)">
    <path id="Path_4254" data-name="Path 4254" d="M64,0A64,64,0,1,1,0,64,64,64,0,0,1,64,0Z" transform="translate(0 -0.2)" fill="#098cc7"/>
    <path id="Path_4237" data-name="Path 4237" d="M126.2,27.2,35.4,61.7l2.3,29.6Z" fill="#fff"/>
    <path id="Path_4238" data-name="Path 4238" d="M55,79.6l-18,12,7.8-21.8Z" fill="#d4d6d6"/>
    <path id="Path_4239" data-name="Path 4239" d="M37.7,92.3a.909.909,0,0,1-.8-.4,1.075,1.075,0,0,1,.2-1.4l88.5-64.1a1,1,0,0,1,1.2,1.6L38.2,92.1C38.1,92.3,37.9,92.3,37.7,92.3Z" fill="#074370"/>
    <path id="Path_4240" data-name="Path 4240" d="M14.2,43.3l112-16.1L66.4,88.3Z" fill="#fff"/>
    <path id="Path_4241" data-name="Path 4241" d="M121.3,29.2l-86,33.6L37,92.2l8.7-23Z" fill="#eaeaea"/>
    <path id="Path_4242" data-name="Path 4242" d="M66.4,89.3a1.854,1.854,0,0,1-.7-.2L43.9,70.3a.992.992,0,0,1,1.3-1.5L66.3,87l57-58.3L16.5,44,36.9,61.6a.992.992,0,1,1-1.3,1.5l-22-19a1.015,1.015,0,0,1-.3-1,.849.849,0,0,1,.8-.7L126,26.3a1.016,1.016,0,0,1,1,.5,1.091,1.091,0,0,1-.2,1.2L67.1,89A.908.908,0,0,1,66.4,89.3Z" fill="#074370"/>
    <path id="Path_4243" data-name="Path 4243" d="M37.7,92.3h-.3a1.146,1.146,0,0,1-.7-1.3l7-22.4a1.024,1.024,0,0,1,.5-.6l63.7-32.5L37.5,63a1.012,1.012,0,0,1-.7-1.9l89-34.8a.985.985,0,1,1,.8,1.8L45.4,69.6l-6.8,22A.856.856,0,0,1,37.7,92.3Z" fill="#074370"/>
    <path id="Path_4244" data-name="Path 4244" d="M37.7,92.3a.987.987,0,0,1-1-.9L34.4,61.7a1,1,0,1,1,2-.2l2.3,29.7a1.028,1.028,0,0,1-1,1.1Z" fill="#074370"/>
    <path id="Path_4245" data-name="Path 4245" d="M76.9,38.9a1.077,1.077,0,0,1-1-.8.937.937,0,0,1,.8-1.1L90,34.9a.962.962,0,1,1,.3,1.9L77,38.9Z" fill="#0c508e" opacity="0.5"/>
    <path id="Path_4246" data-name="Path 4246" d="M25.2,47.1a1.077,1.077,0,0,1-1-.8.937.937,0,0,1,.8-1.1l39.7-6.3a.962.962,0,1,1,.3,1.9L25.3,47.1Z" fill="#0c508e" opacity="0.5"/>
    <path id="Path_4247" data-name="Path 4247" d="M67,81.8a.908.908,0,0,1-.7-.3.967.967,0,0,1,0-1.4l28-27a.99.99,0,0,1,1.4,1.4l-28,27A1.08,1.08,0,0,1,67,81.8Z" fill="#0c508e" opacity="0.5"/>
    <path id="Path_4248" data-name="Path 4248" d="M17,79a4,4,0,1,1,4-4A4.012,4.012,0,0,1,17,79Zm0-6.1A2.1,2.1,0,1,0,19.1,75,2.051,2.051,0,0,0,17,72.9Z" fill="#fff"/>
    <path id="Path_4249" data-name="Path 4249" d="M84,106a4,4,0,1,1,4-4A4.012,4.012,0,0,1,84,106Zm0-6.1a2.1,2.1,0,1,0,2.1,2.1A2.051,2.051,0,0,0,84,99.9Z" fill="#fff"/>
    <path id="Path_4250" data-name="Path 4250" d="M88,25a4,4,0,1,1,4-4A4.012,4.012,0,0,1,88,25Zm0-6.1A2.1,2.1,0,1,0,90.1,21,2.051,2.051,0,0,0,88,18.9Z" fill="#fff"/>
    <path id="Path_4251" data-name="Path 4251" d="M59.8,21.2a1.069,1.069,0,0,0-1-.9L56.9,20c-.5-.1-1.1-.6-1.1-1.1L55.5,17c-.1-.5-.5-1-.9-1a1.069,1.069,0,0,0-.9,1l-.3,1.9c-.1.5-.6,1.1-1.1,1.1l-1.9.3c-.5.1-1,.5-1,.9a1.069,1.069,0,0,0,1,.9l1.9.3c.5.1,1.1.6,1.1,1.1l.3,1.9c.1.5.5,1,.9,1a.915.915,0,0,0,.8-1l.3-2.1a1.532,1.532,0,0,1,1.1-1.1l1.8-.1C59.3,22,59.8,21.6,59.8,21.2Z" fill="#fff"/>
    <path id="Path_4252" data-name="Path 4252" d="M108.5,76.8a1.069,1.069,0,0,0-1-.9l-1.9-.3c-.5-.1-1.1-.6-1.1-1.1l-.3-1.9c-.1-.5-.5-1-.9-1a1.069,1.069,0,0,0-.9,1l-.3,1.9c-.1.5-.6,1.1-1.1,1.1l-1.9.3c-.5.1-1,.5-1,.9a1.069,1.069,0,0,0,1,.9l1.9.3c.5.1,1.1.6,1.1,1.1l.3,1.9c.1.5.5,1,.9,1a.915.915,0,0,0,.8-1l.3-2.1a1.532,1.532,0,0,1,1.1-1.1l1.8-.1Q108.5,77.4,108.5,76.8Z" fill="#fff"/>
    <path id="Path_4253" data-name="Path 4253" d="M39,107c0,1.1,1.7,2,3.3,2H56.2c1.7,0,2.7-.9,2.7-2s1.6-2,3-2a1.837,1.837,0,0,0,2-2c0-1.1-1-2-2.7-2H51c-1.7,0-3,.9-3,2s-1,2-2.7,2h-3C40.7,105,39,105.9,39,107Z" fill="#fff"/>
  </g>
</svg>
