<svg xmlns="http://www.w3.org/2000/svg" width="22.869" height="22.869" viewBox="0 0 22.869 22.869">
  <g id="settings-chat" transform="translate(-0.5 -0.5)">
    <path id="Path_30678" data-name="Path 30678" d="M19.192,16.346A2.846,2.846,0,1,1,16.346,13.5,2.846,2.846,0,0,1,19.192,16.346Z" transform="translate(-4.411 -4.411)" fill="none" stroke="#8f98a2" stroke-linecap="round" stroke-linejoin="round" stroke-width="2"/>
    <path id="Path_30679" data-name="Path 30679" d="M18.954,14.78a1.565,1.565,0,0,0,.313,1.726l.057.057a1.9,1.9,0,1,1-2.685,2.685l-.057-.057a1.578,1.578,0,0,0-2.675,1.119v.161a1.9,1.9,0,0,1-3.794,0v-.085a1.565,1.565,0,0,0-1.024-1.432,1.565,1.565,0,0,0-1.726.313l-.057.057A1.9,1.9,0,1,1,4.621,16.64l.057-.057a1.578,1.578,0,0,0-1.119-2.675H3.4a1.9,1.9,0,0,1,0-3.794h.085A1.565,1.565,0,0,0,4.915,9.089,1.565,1.565,0,0,0,4.6,7.362l-.057-.057A1.9,1.9,0,1,1,7.23,4.621l.057.057a1.565,1.565,0,0,0,1.726.313h.076a1.565,1.565,0,0,0,.949-1.432V3.4a1.9,1.9,0,0,1,3.794,0v.085A1.578,1.578,0,0,0,16.507,4.6l.057-.057A1.9,1.9,0,1,1,19.248,7.23l-.057.057a1.565,1.565,0,0,0-.313,1.726v.076a1.565,1.565,0,0,0,1.432.949h.161a1.9,1.9,0,0,1,0,3.794h-.085a1.565,1.565,0,0,0-1.432.949Z" transform="translate(0 0)" fill="none" stroke="#8f98a2" stroke-linecap="round" stroke-linejoin="round" stroke-width="2"/>
  </g>
</svg>
